<mxfile host="app.diagrams.net" modified="2023-06-25T14:53:23.073Z" agent="Mozilla/5.0 (Windows NT 10.0; Win64; x64) AppleWebKit/537.36 (KHTML, like Gecko) Chrome/114.0.0.0 Safari/537.36 Edg/114.0.1823.58" etag="AaqlynYJ8I-5FWahKiZ9" version="21.5.0" type="github">
  <diagram name="第 1 页" id="MzqXfe-O-0iarek243CC">
    <mxGraphModel dx="1379" dy="764" grid="1" gridSize="10" guides="1" tooltips="1" connect="1" arrows="1" fold="1" page="1" pageScale="1" pageWidth="827" pageHeight="1169" math="0" shadow="0">
      <root>
        <mxCell id="0" />
        <mxCell id="1" parent="0" />
        <mxCell id="1_ZqPZ5fezj5WKHNZH5H-43" value="" style="group" vertex="1" connectable="0" parent="1">
          <mxGeometry x="320" y="480" width="240" height="315" as="geometry" />
        </mxCell>
        <mxCell id="1_ZqPZ5fezj5WKHNZH5H-34" value="Power&lt;br&gt;Data" style="rounded=0;whiteSpace=wrap;html=1;" vertex="1" parent="1_ZqPZ5fezj5WKHNZH5H-43">
          <mxGeometry x="60" y="20" width="60" height="60" as="geometry" />
        </mxCell>
        <mxCell id="1_ZqPZ5fezj5WKHNZH5H-35" value="&lt;span id=&quot;docs-internal-guid-7eebf57d-7fff-22d7-f957-393773581c21&quot;&gt;&lt;/span&gt;TEPCO&amp;nbsp;dataset" style="rounded=0;whiteSpace=wrap;html=1;" vertex="1" parent="1_ZqPZ5fezj5WKHNZH5H-43">
          <mxGeometry x="60" width="120" height="20" as="geometry" />
        </mxCell>
        <mxCell id="1_ZqPZ5fezj5WKHNZH5H-36" value="Water&lt;br&gt;Data" style="rounded=0;whiteSpace=wrap;html=1;" vertex="1" parent="1_ZqPZ5fezj5WKHNZH5H-43">
          <mxGeometry x="120" y="20" width="60" height="60" as="geometry" />
        </mxCell>
        <mxCell id="1_ZqPZ5fezj5WKHNZH5H-39" value="Clustering method" style="shape=hexagon;perimeter=hexagonPerimeter2;whiteSpace=wrap;html=1;fixedSize=1;" vertex="1" parent="1_ZqPZ5fezj5WKHNZH5H-43">
          <mxGeometry x="60" y="135" width="120" height="80" as="geometry" />
        </mxCell>
        <mxCell id="1_ZqPZ5fezj5WKHNZH5H-42" style="edgeStyle=orthogonalEdgeStyle;rounded=0;orthogonalLoop=1;jettySize=auto;html=1;exitX=0;exitY=1;exitDx=0;exitDy=0;entryX=0.5;entryY=0;entryDx=0;entryDy=0;" edge="1" parent="1_ZqPZ5fezj5WKHNZH5H-43" source="1_ZqPZ5fezj5WKHNZH5H-36" target="1_ZqPZ5fezj5WKHNZH5H-39">
          <mxGeometry relative="1" as="geometry" />
        </mxCell>
        <mxCell id="1_ZqPZ5fezj5WKHNZH5H-40" value="NMI" style="rounded=1;whiteSpace=wrap;html=1;" vertex="1" parent="1_ZqPZ5fezj5WKHNZH5H-43">
          <mxGeometry y="255" width="70" height="60" as="geometry" />
        </mxCell>
        <mxCell id="1_ZqPZ5fezj5WKHNZH5H-37" style="edgeStyle=orthogonalEdgeStyle;rounded=0;orthogonalLoop=1;jettySize=auto;html=1;exitX=0;exitY=0.5;exitDx=0;exitDy=0;" edge="1" parent="1_ZqPZ5fezj5WKHNZH5H-43" source="1_ZqPZ5fezj5WKHNZH5H-39" target="1_ZqPZ5fezj5WKHNZH5H-40">
          <mxGeometry relative="1" as="geometry" />
        </mxCell>
        <mxCell id="1_ZqPZ5fezj5WKHNZH5H-41" value="ARI" style="rounded=1;whiteSpace=wrap;html=1;" vertex="1" parent="1_ZqPZ5fezj5WKHNZH5H-43">
          <mxGeometry x="170" y="255" width="70" height="60" as="geometry" />
        </mxCell>
        <mxCell id="1_ZqPZ5fezj5WKHNZH5H-38" style="edgeStyle=orthogonalEdgeStyle;rounded=0;orthogonalLoop=1;jettySize=auto;html=1;exitX=1;exitY=0.5;exitDx=0;exitDy=0;" edge="1" parent="1_ZqPZ5fezj5WKHNZH5H-43" source="1_ZqPZ5fezj5WKHNZH5H-39" target="1_ZqPZ5fezj5WKHNZH5H-41">
          <mxGeometry relative="1" as="geometry" />
        </mxCell>
        <mxCell id="1_ZqPZ5fezj5WKHNZH5H-44" value="" style="group" vertex="1" connectable="0" parent="1">
          <mxGeometry x="40" y="470" width="240" height="360" as="geometry" />
        </mxCell>
        <mxCell id="1_ZqPZ5fezj5WKHNZH5H-25" value="Data" style="rounded=0;whiteSpace=wrap;html=1;" vertex="1" parent="1_ZqPZ5fezj5WKHNZH5H-44">
          <mxGeometry x="60" y="20" width="120" height="60" as="geometry" />
        </mxCell>
        <mxCell id="1_ZqPZ5fezj5WKHNZH5H-26" value="behavior template Label" style="rounded=0;whiteSpace=wrap;html=1;" vertex="1" parent="1_ZqPZ5fezj5WKHNZH5H-44">
          <mxGeometry x="60" y="80" width="120" height="60" as="geometry" />
        </mxCell>
        <mxCell id="1_ZqPZ5fezj5WKHNZH5H-27" value="Simhouse dataset" style="rounded=0;whiteSpace=wrap;html=1;" vertex="1" parent="1_ZqPZ5fezj5WKHNZH5H-44">
          <mxGeometry x="60" width="120" height="20" as="geometry" />
        </mxCell>
        <mxCell id="1_ZqPZ5fezj5WKHNZH5H-30" value="Clustering method" style="shape=hexagon;perimeter=hexagonPerimeter2;whiteSpace=wrap;html=1;fixedSize=1;" vertex="1" parent="1_ZqPZ5fezj5WKHNZH5H-44">
          <mxGeometry x="60" y="180" width="120" height="80" as="geometry" />
        </mxCell>
        <mxCell id="1_ZqPZ5fezj5WKHNZH5H-33" style="edgeStyle=orthogonalEdgeStyle;rounded=0;orthogonalLoop=1;jettySize=auto;html=1;exitX=0.5;exitY=1;exitDx=0;exitDy=0;entryX=0.5;entryY=0;entryDx=0;entryDy=0;" edge="1" parent="1_ZqPZ5fezj5WKHNZH5H-44" source="1_ZqPZ5fezj5WKHNZH5H-26" target="1_ZqPZ5fezj5WKHNZH5H-30">
          <mxGeometry relative="1" as="geometry" />
        </mxCell>
        <mxCell id="1_ZqPZ5fezj5WKHNZH5H-31" value="NMI" style="rounded=1;whiteSpace=wrap;html=1;" vertex="1" parent="1_ZqPZ5fezj5WKHNZH5H-44">
          <mxGeometry y="300" width="70" height="60" as="geometry" />
        </mxCell>
        <mxCell id="1_ZqPZ5fezj5WKHNZH5H-28" style="edgeStyle=orthogonalEdgeStyle;rounded=0;orthogonalLoop=1;jettySize=auto;html=1;exitX=0;exitY=0.5;exitDx=0;exitDy=0;" edge="1" parent="1_ZqPZ5fezj5WKHNZH5H-44" source="1_ZqPZ5fezj5WKHNZH5H-30" target="1_ZqPZ5fezj5WKHNZH5H-31">
          <mxGeometry relative="1" as="geometry" />
        </mxCell>
        <mxCell id="1_ZqPZ5fezj5WKHNZH5H-32" value="ARI" style="rounded=1;whiteSpace=wrap;html=1;" vertex="1" parent="1_ZqPZ5fezj5WKHNZH5H-44">
          <mxGeometry x="170" y="300" width="70" height="60" as="geometry" />
        </mxCell>
        <mxCell id="1_ZqPZ5fezj5WKHNZH5H-29" style="edgeStyle=orthogonalEdgeStyle;rounded=0;orthogonalLoop=1;jettySize=auto;html=1;exitX=1;exitY=0.5;exitDx=0;exitDy=0;" edge="1" parent="1_ZqPZ5fezj5WKHNZH5H-44" source="1_ZqPZ5fezj5WKHNZH5H-30" target="1_ZqPZ5fezj5WKHNZH5H-32">
          <mxGeometry relative="1" as="geometry" />
        </mxCell>
        <mxCell id="1_ZqPZ5fezj5WKHNZH5H-45" value="" style="group" vertex="1" connectable="0" parent="1">
          <mxGeometry x="320" y="50" width="220" height="370" as="geometry" />
        </mxCell>
        <mxCell id="1_ZqPZ5fezj5WKHNZH5H-14" value="Data" style="rounded=0;whiteSpace=wrap;html=1;" vertex="1" parent="1_ZqPZ5fezj5WKHNZH5H-45">
          <mxGeometry x="50" y="20" width="120" height="60" as="geometry" />
        </mxCell>
        <mxCell id="1_ZqPZ5fezj5WKHNZH5H-16" value="&lt;span id=&quot;docs-internal-guid-7eebf57d-7fff-22d7-f957-393773581c21&quot;&gt;&lt;/span&gt;TEPCO&amp;nbsp;dataset" style="rounded=0;whiteSpace=wrap;html=1;" vertex="1" parent="1_ZqPZ5fezj5WKHNZH5H-45">
          <mxGeometry x="50" width="120" height="20" as="geometry" />
        </mxCell>
        <mxCell id="1_ZqPZ5fezj5WKHNZH5H-17" value="Clustering method" style="shape=hexagon;perimeter=hexagonPerimeter2;whiteSpace=wrap;html=1;fixedSize=1;" vertex="1" parent="1_ZqPZ5fezj5WKHNZH5H-45">
          <mxGeometry x="50" y="110" width="120" height="80" as="geometry" />
        </mxCell>
        <mxCell id="1_ZqPZ5fezj5WKHNZH5H-18" style="edgeStyle=orthogonalEdgeStyle;rounded=0;orthogonalLoop=1;jettySize=auto;html=1;exitX=0.5;exitY=1;exitDx=0;exitDy=0;" edge="1" parent="1_ZqPZ5fezj5WKHNZH5H-45" source="1_ZqPZ5fezj5WKHNZH5H-14" target="1_ZqPZ5fezj5WKHNZH5H-17">
          <mxGeometry relative="1" as="geometry" />
        </mxCell>
        <mxCell id="1_ZqPZ5fezj5WKHNZH5H-19" value="st-gcn" style="shape=hexagon;perimeter=hexagonPerimeter2;whiteSpace=wrap;html=1;fixedSize=1;" vertex="1" parent="1_ZqPZ5fezj5WKHNZH5H-45">
          <mxGeometry x="50" y="220" width="120" height="80" as="geometry" />
        </mxCell>
        <mxCell id="1_ZqPZ5fezj5WKHNZH5H-20" style="edgeStyle=orthogonalEdgeStyle;rounded=0;orthogonalLoop=1;jettySize=auto;html=1;exitX=0.5;exitY=1;exitDx=0;exitDy=0;" edge="1" parent="1_ZqPZ5fezj5WKHNZH5H-45" source="1_ZqPZ5fezj5WKHNZH5H-17" target="1_ZqPZ5fezj5WKHNZH5H-19">
          <mxGeometry relative="1" as="geometry" />
        </mxCell>
        <mxCell id="1_ZqPZ5fezj5WKHNZH5H-21" value="MAE" style="rounded=1;whiteSpace=wrap;html=1;" vertex="1" parent="1_ZqPZ5fezj5WKHNZH5H-45">
          <mxGeometry y="310" width="70" height="60" as="geometry" />
        </mxCell>
        <mxCell id="1_ZqPZ5fezj5WKHNZH5H-23" style="edgeStyle=orthogonalEdgeStyle;rounded=0;orthogonalLoop=1;jettySize=auto;html=1;exitX=0;exitY=0.5;exitDx=0;exitDy=0;" edge="1" parent="1_ZqPZ5fezj5WKHNZH5H-45" source="1_ZqPZ5fezj5WKHNZH5H-19" target="1_ZqPZ5fezj5WKHNZH5H-21">
          <mxGeometry relative="1" as="geometry" />
        </mxCell>
        <mxCell id="1_ZqPZ5fezj5WKHNZH5H-22" value="&lt;div&gt;RMSE&lt;/div&gt;" style="rounded=1;whiteSpace=wrap;html=1;" vertex="1" parent="1_ZqPZ5fezj5WKHNZH5H-45">
          <mxGeometry x="150" y="310" width="70" height="60" as="geometry" />
        </mxCell>
        <mxCell id="1_ZqPZ5fezj5WKHNZH5H-24" style="edgeStyle=orthogonalEdgeStyle;rounded=0;orthogonalLoop=1;jettySize=auto;html=1;exitX=1;exitY=0.5;exitDx=0;exitDy=0;" edge="1" parent="1_ZqPZ5fezj5WKHNZH5H-45" source="1_ZqPZ5fezj5WKHNZH5H-19" target="1_ZqPZ5fezj5WKHNZH5H-22">
          <mxGeometry relative="1" as="geometry" />
        </mxCell>
        <mxCell id="1_ZqPZ5fezj5WKHNZH5H-46" value="" style="group" vertex="1" connectable="0" parent="1">
          <mxGeometry x="40" y="50" width="240" height="360" as="geometry" />
        </mxCell>
        <mxCell id="1_ZqPZ5fezj5WKHNZH5H-1" value="Data" style="rounded=0;whiteSpace=wrap;html=1;" vertex="1" parent="1_ZqPZ5fezj5WKHNZH5H-46">
          <mxGeometry x="60" y="20" width="120" height="60" as="geometry" />
        </mxCell>
        <mxCell id="1_ZqPZ5fezj5WKHNZH5H-5" style="edgeStyle=orthogonalEdgeStyle;rounded=0;orthogonalLoop=1;jettySize=auto;html=1;exitX=0.5;exitY=1;exitDx=0;exitDy=0;entryX=0.5;entryY=0;entryDx=0;entryDy=0;" edge="1" parent="1_ZqPZ5fezj5WKHNZH5H-46" source="1_ZqPZ5fezj5WKHNZH5H-2">
          <mxGeometry relative="1" as="geometry">
            <mxPoint x="120" y="180" as="targetPoint" />
          </mxGeometry>
        </mxCell>
        <mxCell id="1_ZqPZ5fezj5WKHNZH5H-2" value="Label" style="rounded=0;whiteSpace=wrap;html=1;" vertex="1" parent="1_ZqPZ5fezj5WKHNZH5H-46">
          <mxGeometry x="60" y="80" width="120" height="60" as="geometry" />
        </mxCell>
        <mxCell id="1_ZqPZ5fezj5WKHNZH5H-3" value="UCR dataset" style="rounded=0;whiteSpace=wrap;html=1;" vertex="1" parent="1_ZqPZ5fezj5WKHNZH5H-46">
          <mxGeometry x="60" width="120" height="20" as="geometry" />
        </mxCell>
        <mxCell id="1_ZqPZ5fezj5WKHNZH5H-6" value="Clustering method" style="shape=hexagon;perimeter=hexagonPerimeter2;whiteSpace=wrap;html=1;fixedSize=1;" vertex="1" parent="1_ZqPZ5fezj5WKHNZH5H-46">
          <mxGeometry x="60" y="180" width="120" height="80" as="geometry" />
        </mxCell>
        <mxCell id="1_ZqPZ5fezj5WKHNZH5H-7" value="NMI" style="rounded=1;whiteSpace=wrap;html=1;" vertex="1" parent="1_ZqPZ5fezj5WKHNZH5H-46">
          <mxGeometry y="300" width="70" height="60" as="geometry" />
        </mxCell>
        <mxCell id="1_ZqPZ5fezj5WKHNZH5H-12" style="edgeStyle=orthogonalEdgeStyle;rounded=0;orthogonalLoop=1;jettySize=auto;html=1;exitX=0;exitY=0.5;exitDx=0;exitDy=0;" edge="1" parent="1_ZqPZ5fezj5WKHNZH5H-46" source="1_ZqPZ5fezj5WKHNZH5H-6" target="1_ZqPZ5fezj5WKHNZH5H-7">
          <mxGeometry relative="1" as="geometry" />
        </mxCell>
        <mxCell id="1_ZqPZ5fezj5WKHNZH5H-10" value="ARI" style="rounded=1;whiteSpace=wrap;html=1;" vertex="1" parent="1_ZqPZ5fezj5WKHNZH5H-46">
          <mxGeometry x="170" y="300" width="70" height="60" as="geometry" />
        </mxCell>
        <mxCell id="1_ZqPZ5fezj5WKHNZH5H-13" style="edgeStyle=orthogonalEdgeStyle;rounded=0;orthogonalLoop=1;jettySize=auto;html=1;exitX=1;exitY=0.5;exitDx=0;exitDy=0;" edge="1" parent="1_ZqPZ5fezj5WKHNZH5H-46" source="1_ZqPZ5fezj5WKHNZH5H-6" target="1_ZqPZ5fezj5WKHNZH5H-10">
          <mxGeometry relative="1" as="geometry" />
        </mxCell>
      </root>
    </mxGraphModel>
  </diagram>
</mxfile>
